<svg xmlns="http://www.w3.org/2000/svg" width="132.735" height="27.164" viewBox="0 0 132.735 27.164">
  <g id="partner_2" transform="translate(0 0.24)">
    <g id="Сгруппировать_25" data-name="Сгруппировать 25" transform="translate(0 -0.24)">
      <path id="Контур_657" data-name="Контур 657" d="M5432.429-771.836c.716.49,1.446.952,2.124,1.5a6.683,6.683,0,0,1-1.365,10.859,11.857,11.857,0,0,1-5.321,1.174c-3.741.022-7.483,0-11.225.017-.464,0-.627-.1-.625-.6.019-4.337,0-8.674.014-13.011a3.081,3.081,0,0,1,3.019-3.128c.607-.083,1.226-.048,1.827-.178a41.66,41.66,0,0,1,8.891,2.179q.964.356,1.925.719A1.234,1.234,0,0,1,5432.429-771.836Z" transform="translate(-5416.019 782.744)" fill="#00dcc0"/>
      <path id="Контур_658" data-name="Контур 658" d="M5432.475-819.057a58.185,58.185,0,0,0-6.882-2.269c-1.512-.331-3.013-.717-4.552-.914-.2-.148-.534.061-.684-.241-.639-.178-1.281-.348-1.917-.536a3.048,3.048,0,0,1-2.337-3.034c-.054-1.167-.018-2.339-.029-3.509,0-.236.026-.391.327-.385,4.494.09,8.992-.189,13.482.166a7.845,7.845,0,0,1,2.33.567c2.781,1.131,3.521,3.575,3.216,6.113A5.1,5.1,0,0,1,5432.475-819.057Z" transform="translate(-5416.064 829.965)" fill="#125eec"/>
      <path id="Контур_659" data-name="Контур 659" d="M5877.154-804.93a6.278,6.278,0,0,1,4.757,2.326,5.091,5.091,0,0,1,.913,1.975c.084.345-.011.481-.368.556a21.015,21.015,0,0,0-2.26.58c-.417.137-.535,0-.7-.35a3.471,3.471,0,0,0-4.707-1.619,1.516,1.516,0,0,0-.88,1.44,1.388,1.388,0,0,0,.958,1.3c1.75.8,3.648,1.214,5.375,2.064a5.339,5.339,0,0,1,2.707,2.328,5.078,5.078,0,0,1-2.352,6.682,7.533,7.533,0,0,1-8.285-.656,6.016,6.016,0,0,1-2.285-4.242c-.041-.292.011-.461.352-.526.9-.172,1.8-.355,2.681-.594.4-.109.464.048.521.367a6.524,6.524,0,0,0,.29,1.125,3.053,3.053,0,0,0,3.9,2.223,4.52,4.52,0,0,0,1.183-.338,1.689,1.689,0,0,0,1.1-1.593,1.837,1.837,0,0,0-1.008-1.743,16.181,16.181,0,0,0-3.5-1.377,11.387,11.387,0,0,1-3.143-1.5c-2.435-1.571-2.365-5.36-.018-7.139A6.968,6.968,0,0,1,5877.154-804.93Z" transform="translate(-5807.477 808.38)" fill="#101419"/>
      <path id="Контур_660" data-name="Контур 660" d="M6194.24-772.347a4.715,4.715,0,0,1,5.62-1.269,4.219,4.219,0,0,1,2.616,4.094c.051,2.843.007,5.687.02,8.53,0,.359-.093.479-.459.466-.756-.026-1.515-.032-2.271,0-.41.018-.486-.134-.484-.509.016-2.385.009-4.769.008-7.154,0-.183.007-.368-.008-.55-.135-1.559-.883-2.357-2.161-2.309-1.831.069-2.72.887-2.728,2.548-.011,2.454-.014,4.907.009,7.361,0,.46-.08.646-.586.615-.754-.047-1.514-.031-2.27,0-.37.013-.459-.115-.458-.47q.018-6.088,0-12.176c0-.354.092-.487.46-.473a16.71,16.71,0,0,0,1.994-.005c.569-.047.806.118.7.7A4.11,4.11,0,0,0,6194.24-772.347Z" transform="translate(-6084.314 781.762)" fill="#101419"/>
      <path id="Контур_661" data-name="Контур 661" d="M6087.961-772.026a3.169,3.169,0,0,1,3.553-1.591c.346.078.446.212.378.563-.145.741-.269,1.487-.36,2.236-.041.344-.118.457-.5.4-1.84-.271-2.778.487-2.828,2.38-.062,2.382-.053,4.766-.029,7.148.006.555-.159.7-.687.667-.73-.045-1.467-.024-2.2,0-.3.008-.391-.081-.39-.385q.013-6.221,0-12.443c0-.324.083-.44.419-.428.688.024,1.378.04,2.063,0,.49-.032.66.127.592.6A7.27,7.27,0,0,0,6087.961-772.026Z" transform="translate(-5992.749 781.462)" fill="#101419"/>
      <path id="Контур_662" data-name="Контур 662" d="M5729.479-764.44c0,1.973-.012,3.946.009,5.918,0,.43-.08.6-.554.577-.755-.043-1.514-.028-2.271,0-.36.012-.467-.1-.466-.464q.018-6.09,0-12.18c0-.353.091-.486.46-.475.779.024,1.561.029,2.34,0,.4-.016.491.128.488.5C5729.47-768.523,5729.479-766.482,5729.479-764.44Z" transform="translate(-5683.468 779.184)" fill="#101419"/>
      <path id="Контур_663" data-name="Контур 663" d="M6149.9-764.494c0,1.973-.014,3.947.011,5.92.005.456-.075.652-.585.619-.731-.047-1.469-.028-2.2-.005-.345.011-.474-.072-.472-.448q.026-6.092.013-12.184c0-.4.126-.5.506-.488.733.028,1.47.033,2.2,0,.422-.02.542.1.537.53C6149.883-768.532,6149.9-766.513,6149.9-764.494Z" transform="translate(-6045.996 779.194)" fill="#101419"/>
      <path id="Контур_664" data-name="Контур 664" d="M5727.921-804.987c-1.67,0-1.67,0-1.67-1.657,0-1.373,0-1.377,1.409-1.371.592,0,1.357-.193,1.73.1.4.313.118,1.113.128,1.7.021,1.229.006,1.23-1.253,1.23Z" transform="translate(-5683.513 811.092)" fill="#11151a"/>
      <path id="Контур_665" data-name="Контур 665" d="M6148.034-807.644c1.558,0,1.558,0,1.558,1.565,0,1.465,0,1.478-1.437,1.459-.587-.008-1.368.263-1.706-.124-.287-.328-.087-1.089-.087-1.658,0-1.242,0-1.242,1.26-1.242Z" transform="translate(-6045.691 810.719)" fill="#101419"/>
      <path id="Контур_666" data-name="Контур 666" d="M5439.29-775.64c.22.1.493.056.684.241l-1.944,0C5438.409-775.692,5438.9-775.378,5439.29-775.64Z" transform="translate(-5434.997 783.124)" fill="#59d4dc"/>
      <path id="Контур_667" data-name="Контур 667" d="M5625.677-794.541a4.985,4.985,0,0,0,1.141-1.077,4.052,4.052,0,0,0,.277-4.125,4.407,4.407,0,0,0-3.789-2.7c-2.628-.227-5.272-.042-7.908-.094-.453-.009-.454.212-.453.544q.011,4.23,0,8.461,0,3.955,0,7.91c0,.215-.141.531.312.519a78.43,78.43,0,0,0,8.521-.16,4.98,4.98,0,0,0,4.275-3.99A4.54,4.54,0,0,0,5625.677-794.541Zm-6.816-4.914c1.1.018,2.2-.011,3.3.015a1.853,1.853,0,0,1,2.009,1.955,1.839,1.839,0,0,1-2.02,1.932c-.527.016-1.055,0-1.583,0v0c-.574,0-1.148-.019-1.721.007-.348.016-.481-.072-.472-.449q.04-1.513,0-3.028C5618.367-799.41,5618.53-799.46,5618.86-799.454Zm4.047,11.066c-.683.048-1.372.008-2.058.008v.036c-.664,0-1.328-.012-1.991.005-.326.008-.491-.045-.481-.44.027-1.212.02-2.425,0-3.638,0-.321.08-.435.417-.43,1.35.022,2.7-.013,4.051.028a2.02,2.02,0,0,1,2.031,2.064C5624.9-789.268,5624.266-788.483,5622.908-788.388Z" transform="translate(-5587.531 806.333)" fill="#101419"/>
      <path id="Контур_668" data-name="Контур 668" d="M6299.261-773.287c-.35-.3-1.129-.106-1.719-.11-1.217-.008-1.217,0-1.394,1.154a9.431,9.431,0,0,0-.8-.725,5.351,5.351,0,0,0-6.461.623c-2.737,2.568-2.689,7.057-1.233,9.528,1.851,3.14,6.085,3.921,8.427,1.306,0,.588,0,1.106,0,1.623a2.463,2.463,0,0,1-2.651,2.734,3.466,3.466,0,0,1-3.326-2.134c-.444.3-.843.564-1.241.834-1.329.9-1.342,1.041-.216,2.24.032.033.066.064.1.1a6.483,6.483,0,0,0,4.9,1.748,5.556,5.556,0,0,0,5.731-5.72q0-5.744,0-11.489C6299.368-772.168,6299.63-772.971,6299.261-773.287ZM6296.108-768c-.015.389,0,.779,0,1.168s0,.779,0,1.168a2.588,2.588,0,0,1-1.687,2.642,3.055,3.055,0,0,1-3.314-.616c-1.57-1.428-1.561-5.308.183-6.592a3.066,3.066,0,0,1,3.232-.4A2.542,2.542,0,0,1,6296.108-768Z" transform="translate(-6166.723 781.523)" fill="#101419"/>
      <path id="Контур_669" data-name="Контур 669" d="M5776.9-773.028c0-.366-.158-.407-.454-.4-.5.016-1.009,0-1.514,0-1.086,0-1.085,0-1.145,1.079,0,.024-.062.045-.1.07a9.242,9.242,0,0,0-.8-.735,5.358,5.358,0,0,0-6.558.756,8.167,8.167,0,0,0-1.137,9.37c1.889,3.281,6.183,3.908,8.467,1.314,0,.763.025,1.378,0,1.99a2.294,2.294,0,0,1-1.775,2.258,3.366,3.366,0,0,1-3.477-.891c-.315-.317-.408-1-.84-.964s-.806.478-1.2.748c-1.325.9-1.339,1.051-.212,2.223.032.033.065.064.1.1a6.625,6.625,0,0,0,5.395,1.7,5.4,5.4,0,0,0,5.228-5.276C5776.949-764.129,5776.886-768.579,5776.9-773.028Zm-3.215,6.11h-.013c0,.481.026.964,0,1.443a2.576,2.576,0,0,1-1.774,2.455,2.946,2.946,0,0,1-3.192-.612c-1.667-1.583-1.641-5.071.045-6.54a3,3,0,0,1,3.274-.512,2.582,2.582,0,0,1,1.665,2.666C5773.68-767.652,5773.685-767.285,5773.685-766.918Z" transform="translate(-5716.248 781.544)" fill="#101419"/>
      <path id="Контур_670" data-name="Контур 670" d="M5990.78-769.794a5.588,5.588,0,0,0-4.569-4,4.771,4.771,0,0,0-4.518,1.545,3.655,3.655,0,0,1,0-.536c.106-.581-.132-.752-.7-.7a11.289,11.289,0,0,1-1.789,0c-.472-.033-.617.094-.615.592q.028,8.742,0,17.484c0,.463.089.659.6.623a11.034,11.034,0,0,1,1.925,0c.643.067.743-.185.733-.76-.036-1.983-.014-3.968-.014-5.981.105.042.157.046.18.074,1.746,2.163,5.826,1.908,7.707-.653A7.968,7.968,0,0,0,5990.78-769.794Zm-4,6.149a2.957,2.957,0,0,1-3.268.527,2.58,2.58,0,0,1-1.669-2.528c-.012-.435,0-.87,0-1.306,0-.367,0-.733,0-1.1a2.706,2.706,0,0,1,1.829-2.771,3.216,3.216,0,0,1,3.4.867A5.032,5.032,0,0,1,5986.779-763.645Z" transform="translate(-5901.092 781.599)" fill="#101419"/>
    </g>
  </g>
</svg>
