<svg xmlns="http://www.w3.org/2000/svg" xmlns:xlink="http://www.w3.org/1999/xlink" width="48" height="48" viewBox="0 0 48 48"><defs><clipPath id="b"><rect width="48" height="48"/></clipPath></defs><g id="a" clip-path="url(#b)"><g transform="translate(-0.998)"><path d="M264,24V37.716l-12,6.857-12-6.858Z" transform="translate(-239 -24)" fill="#431f5a"/><path d="M252,44.572l12,6.857V65.143l-12-6.857-12-6.857V37.714Z" transform="translate(-239 -24)" fill="#722ed1"/><path d="M276,58.286V72l-12-6.856V51.429Z" transform="translate(-239 -24)" fill="#722ed1"/><path d="M264,24V37.714l12,6.856,12,6.856V37.715Z" transform="translate(-239 -24)" fill="#722ed1"/><path d="M288,37.714V51.43l-12,6.857-12-6.858,12-6.858Z" transform="translate(-239 -24)" fill="#431f5a"/><path d="M276,58.286l-12,6.857V51.429Z" transform="translate(-239 -24)" fill="#431f5a"/></g></g></svg>